<svg width="205" height="12" viewBox="0 0 205 12" fill="none" xmlns="http://www.w3.org/2000/svg">
<path fill-rule="evenodd" clip-rule="evenodd" d="M154.553 0.0480447C125.732 0.184461 117.492 0.273203 101.5 0.619616C84.9286 0.978608 73.0689 1.33846 54.2513 2.05329C49.889 2.219 45.2181 2.37626 39.7423 2.54174C19.6271 3.14962 15.7128 3.31159 9.21011 3.80499C5.98821 4.04951 3.20184 4.21872 1.64016 4.26485C0.251701 4.3058 0 4.33159 0 4.43285C0 4.52234 2.22065 4.60075 3.43524 4.55411C3.87052 4.53745 5.04979 4.49661 6.05596 4.46347C7.06214 4.43027 9.27635 4.34118 10.9764 4.26548C14.9798 4.08713 16.9019 4.0309 23.7823 3.8908C35.3488 3.6553 44.0864 3.429 54.8191 3.08695C58.7744 2.96087 64.026 2.7935 66.4894 2.71498C85.1726 2.1194 107.994 1.58832 121.939 1.42468C138.862 1.226 191.398 1.05035 190.511 1.19532C190.159 1.25282 184.147 1.68045 180.543 1.90435C177.233 2.11003 171.702 2.4067 164.899 2.74352C161.672 2.90332 157.244 3.12446 155.058 3.23497C146.846 3.65019 144.142 3.77897 139.476 3.97708C117.984 4.8896 103.787 5.68478 84.0265 7.08273C72.2811 7.91363 62.654 8.86752 51.9105 10.2649C45.8023 11.0594 45.2071 11.2006 45.8083 11.7121C46.1996 12.0449 49.2815 12.088 55.4977 11.8476C66.8578 11.4084 77.5331 11.0677 87.8745 10.8144C94.3612 10.6555 95.2204 10.6289 101.816 10.3822C104.279 10.2902 108.537 10.1555 111.278 10.0832L116.262 9.95156L109.638 9.89969C99.601 9.82106 88.834 9.82583 85.2881 9.91049C73.5487 10.1908 67.1634 10.4065 56.7337 10.8752C54.2477 10.9869 52.1504 11.0687 52.073 11.057C51.3261 10.9436 68.0439 9.23041 76.0192 8.60307C94.0226 7.1868 112.562 6.13011 141.053 4.89621C143.656 4.78352 148.879 4.53699 152.661 4.34842C156.443 4.15979 162.404 3.86283 165.908 3.68839C179.396 3.0171 183.415 2.76707 196.377 1.79263C204.679 1.1685 204.724 1.16316 204.95 0.752702C205.199 0.301407 204.534 0.0966393 202.628 0.0381093C200.818 -0.0175487 166.928 -0.0105427 154.553 0.0480447ZM116.8 9.90601C116.957 9.91974 117.184 9.91922 117.304 9.90486C117.425 9.8905 117.296 9.87924 117.019 9.87987C116.741 9.8805 116.643 9.89228 116.8 9.90601Z" fill="white"/>
</svg>
