<svg width="241" height="270" viewBox="0 0 241 270" fill="none" xmlns="http://www.w3.org/2000/svg">
<g clip-path="url(#clip0_1_127)">
<path d="M173.21 12.4921C169.494 8.34028 170.792 3.48122 174.263 1.21293C175.455 0.426576 176.851 0.00501954 178.279 0C180.895 0 183.532 1.46578 185.04 4.76378C188.785 12.9868 196.621 35.1787 196.724 35.5231C196.401 35.2227 179.23 19.2164 173.21 12.4921Z" fill="url(#paint0_linear_1_127)"/>
<path d="M197.784 28.4141C195.652 22.8075 198.833 18.4175 203.202 17.4757C203.766 17.3531 204.341 17.2916 204.919 17.2925C208.723 17.2925 212.325 20.0005 212.651 25.2041C213.264 34.9955 212.534 60.6466 212.534 60.6466C212.534 60.6466 201.272 37.5826 197.784 28.4141Z" fill="url(#paint1_linear_1_127)"/>
<path d="M213.238 158.751C214.276 163.834 211.089 169.264 204.119 169.62H204.057C198.465 169.901 192.873 169.072 187.604 167.179C183.943 165.856 180.374 164.289 176.922 162.489C185.179 158.722 195.051 154.339 200.586 152.309C201.851 151.835 203.19 151.587 204.541 151.576C209.111 151.572 212.424 154.75 213.238 158.751Z" fill="url(#paint2_linear_1_127)"/>
<path d="M217.897 91.7027C217.897 91.7027 216.155 66.0956 216.378 56.2895C216.503 50.9321 220.19 48.0739 224.111 48.0739C224.583 48.0742 225.055 48.1147 225.52 48.1948C229.922 48.9643 233.271 53.2224 231.36 58.9096C228.227 68.21 217.897 91.7027 217.897 91.7027Z" fill="url(#paint3_linear_1_127)"/>
<path d="M231.308 123.539C234.177 127.6 233.473 133.591 227.497 136.578C217.798 141.429 191.504 151.726 191.093 151.884C191.383 151.55 209.911 130.264 217.736 122.759C219.856 120.725 222.185 119.846 224.372 119.846C225.74 119.86 227.084 120.203 228.292 120.846C229.499 121.489 230.534 122.413 231.308 123.539Z" fill="url(#paint4_linear_1_127)"/>
<path d="M238.322 96.4629C231.099 104.547 210.465 123.807 210.142 124.107C210.285 123.69 219.643 97.0712 224.144 87.2138C225.953 83.2562 229.115 81.4863 232.255 81.4863C233.961 81.5003 235.627 82.0096 237.049 82.952C241.213 85.6527 242.772 91.4829 238.322 96.4629Z" fill="url(#paint5_linear_1_127)"/>
<path d="M9.65131 58.9096C7.74379 53.2224 11.0966 48.9643 15.4949 48.1948C15.9602 48.1145 16.4314 48.0741 16.9035 48.0739C20.825 48.0739 24.5116 50.9321 24.6327 56.2895C24.8601 66.0956 23.1176 91.7027 23.1176 91.7027C23.1176 91.7027 12.773 68.21 9.65131 58.9096Z" fill="url(#paint6_linear_1_127)"/>
<path d="M2.6815 96.4629C-1.77181 91.4829 -0.212786 85.6528 3.95074 82.9374C5.37393 81.9942 7.04103 81.485 8.74887 81.4716C11.8853 81.4863 15.04 83.2562 16.8742 87.2138C21.3752 97.0712 30.733 123.69 30.8761 124.107C30.5386 123.807 9.90439 104.547 2.6815 96.4629Z" fill="url(#paint7_linear_1_127)"/>
<path d="M49.9072 151.884C49.4964 151.726 23.202 141.429 13.5067 136.578C7.52735 133.591 6.82671 127.6 9.69165 123.539C10.4669 122.413 11.5023 121.489 12.7103 120.846C13.9183 120.203 15.2634 119.86 16.6321 119.846C18.8331 119.846 21.1441 120.725 23.268 122.759C31.0925 130.26 49.6174 151.55 49.9072 151.884Z" fill="url(#paint8_linear_1_127)"/>
<path d="M28.4697 60.6466C28.4697 60.6466 27.736 34.9954 28.3486 25.204C28.6751 20.0005 32.281 17.2925 36.0851 17.2925C36.6621 17.2938 37.2375 17.3552 37.8018 17.4757C42.1671 18.4175 45.3512 22.8075 43.2162 28.4141C39.7314 37.5825 28.4697 60.6466 28.4697 60.6466Z" fill="url(#paint9_linear_1_127)"/>
<path d="M40.4137 152.313C45.9491 154.343 55.8205 158.725 64.0779 162.492C60.6265 164.294 57.0578 165.861 53.3958 167.183C48.1284 169.075 42.5376 169.904 36.9471 169.624H36.8848C29.915 169.257 26.7272 163.837 27.7617 158.755C28.5797 154.753 31.8922 151.576 36.4592 151.576C37.8105 151.587 39.1491 151.837 40.4137 152.313Z" fill="url(#paint10_linear_1_127)"/>
<path d="M67.7902 12.4921C61.7742 19.2164 44.6029 35.2117 44.2801 35.5231C44.4011 35.1567 52.2146 12.9868 55.9746 4.77111C57.4859 1.46578 60.1235 0 62.7279 0C64.1528 0.00715534 65.5447 0.428622 66.7337 1.21293C70.2113 3.48122 71.5062 8.34028 67.7902 12.4921Z" fill="url(#paint11_linear_1_127)"/>
<path d="M5.02924 191.614C8.8688 192.652 12.7616 193.483 16.6908 194.102C20.3942 194.655 24.1345 194.925 27.8791 194.908C37.974 194.884 47.9992 193.237 57.5703 190.031C64.6656 187.676 71.4797 184.547 77.889 180.701C80.6989 179.136 87.7604 174.233 95.816 174.23C97.0344 174.233 98.2495 174.356 99.4439 174.596C102.518 175.109 110.849 178.473 114.623 188.309H126.395C130.17 178.473 138.5 175.117 141.571 174.596C142.766 174.356 143.983 174.233 145.202 174.23C153.273 174.23 160.316 179.136 163.129 180.701C169.539 184.547 176.353 187.676 183.448 190.031C193.016 193.236 203.037 194.883 213.128 194.908C216.87 194.925 220.608 194.655 224.309 194.102C228.238 193.483 232.131 192.652 235.971 191.614L237.09 194.861C233.108 196.361 229.023 197.571 224.867 198.481C218.083 199.994 211.15 200.742 204.2 200.713C196.674 200.735 189.173 199.874 181.849 198.148C174.13 196.334 166.639 193.664 159.516 190.185C158.698 189.796 154.234 187.598 150.485 186.579C149.049 186.19 147.57 185.988 146.083 185.978C145.12 185.972 144.159 186.079 143.221 186.297C139.45 187.429 137.605 190.694 136.688 193.3L138.156 198.481C138.786 200.702 137.396 202.999 135.426 202.999H105.57C103.596 202.999 102.21 200.702 102.837 198.481L104.304 193.289C103.373 190.672 101.498 187.425 97.7675 186.297C96.8296 186.079 95.8692 185.972 94.9063 185.978C93.4192 185.989 91.9398 186.191 90.5043 186.579C86.77 187.62 82.3057 189.818 81.484 190.185C74.3662 193.659 66.8815 196.326 59.1697 198.137C51.8456 199.863 44.3439 200.724 36.8187 200.702C29.8646 200.735 22.9286 199.99 16.1405 198.481C11.9791 197.572 7.88917 196.362 3.90308 194.861L5.02924 191.614Z" fill="#0F1E42"/>
<path d="M141.868 153.907C149.153 153.907 158.217 156.256 169.226 163.002C187.421 174.16 203.792 176.022 212.688 176.022C215.037 176.056 217.385 175.9 219.709 175.556L230.468 189.76C228.44 190.21 226.257 190.646 223.972 190.998C220.382 191.531 216.757 191.79 213.128 191.771C203.27 191.736 193.481 190.128 184.13 187.008C177.183 184.703 170.513 181.636 164.241 177.865C163.892 177.671 163.481 177.425 163.005 177.132C159.45 175.018 152.832 171.086 145.191 171.086C143.85 171.078 142.511 171.201 141.193 171.452C137.282 172.104 129.128 175.802 124.763 185.135H116.237C111.883 175.824 103.721 172.126 99.8695 171.496C98.5331 171.234 97.1743 171.102 95.8124 171.104C88.1713 171.104 81.5537 175.036 77.9954 177.15C77.5222 177.432 77.1077 177.678 76.7042 177.905C70.4454 181.663 63.7898 184.719 56.8587 187.015C47.5194 190.154 37.733 191.763 27.8791 191.779C24.2512 191.794 20.6274 191.533 17.0393 190.998C14.7539 190.632 12.5676 190.21 10.539 189.76L21.3018 175.556C23.6258 175.9 25.9739 176.056 28.323 176.022C37.2149 176.022 53.5865 174.16 71.785 163.002C82.7899 156.256 91.8579 153.907 99.1432 153.907C110.122 153.907 117.055 159.235 120.507 162.855C123.959 159.235 130.9 153.907 141.875 153.907" fill="#DADADA"/>
<path d="M118.402 75.0808C123.045 75.1444 127.676 75.5671 132.253 76.345V58.6091L123.526 55.1646C122.92 54.9254 122.4 54.5095 122.034 53.971C121.667 53.4324 121.472 52.7962 121.472 52.1451V47.2713C121.472 47.0711 121.521 46.8738 121.614 46.6967C121.708 46.5196 121.843 46.3681 122.009 46.2553C122.175 46.1426 122.366 46.072 122.565 46.0499C122.764 46.0277 122.966 46.0545 123.152 46.128L201.173 76.9094C201.66 77.1003 202.202 77.0905 202.681 76.8819C203.161 76.6733 203.537 76.2831 203.728 75.7972C203.919 75.3113 203.91 74.7694 203.701 74.2907C203.492 73.8121 203.101 73.4359 202.615 73.2449L124.48 42.4233C122.529 41.6537 120.357 41.6537 118.405 42.4233L40.1349 73.3219C39.2521 73.6701 38.4947 74.2758 37.9614 75.0601C37.4282 75.8445 37.1437 76.7711 37.1452 77.7192V84.3922C37.1447 85.3401 37.4296 86.2662 37.9627 87.0504C38.4958 87.8345 39.2526 88.4405 40.1349 88.7895L67.8159 99.7096V98.1778C67.8159 93.2968 70.1709 88.8298 73.9566 86.6055C86.6966 79.1337 101.971 74.8793 118.402 75.0845" fill="#0F1E42"/>
<path d="M203.132 86.5762L145.202 63.7174V79.5624C151.376 81.6063 157.294 84.3492 162.843 87.7378C163.019 87.8477 163.276 87.998 163.558 88.1666L163.298 88.6063C157.547 85.6059 151.477 83.2606 145.202 81.6145V96.5032L138.728 91.2007L132.253 94.2605V79.1887C128.663 78.7746 125.053 78.5666 121.439 78.5657C105.42 78.5657 90.5227 82.5526 78.1018 89.3941C76.2633 90.443 74.7386 91.9635 73.6854 93.7983C72.6323 95.6331 72.0889 97.7156 72.1115 99.8305V130.168C72.1117 130.652 72.217 131.13 72.4201 131.569C72.6233 132.008 72.9194 132.398 73.2881 132.711C73.6567 133.025 74.0892 133.255 74.5554 133.385C75.0217 133.516 75.5108 133.543 75.9888 133.466C89.4368 131.268 104.935 130.022 121.439 130.022C137.943 130.022 153.441 131.271 166.889 133.466C167.367 133.543 167.856 133.516 168.323 133.385C168.789 133.255 169.221 133.025 169.59 132.711C169.959 132.398 170.255 132.008 170.458 131.569C170.661 131.13 170.766 130.652 170.767 130.168V101.403L203.132 88.6319C203.341 88.5528 203.521 88.4121 203.648 88.2285C203.774 88.0449 203.842 87.8271 203.842 87.6041C203.842 87.381 203.774 87.1632 203.648 86.9796C203.521 86.796 203.341 86.6553 203.132 86.5762Z" fill="#0F1E42"/>
<path d="M11.4194 240.849C11.4084 237.661 12.2534 234.528 13.8662 231.776C14.6427 230.44 15.587 229.209 16.6761 228.112C17.759 227.023 18.9799 226.081 20.3077 225.308C21.6567 224.536 23.099 223.938 24.5996 223.531C27.7268 222.671 31.0284 222.671 34.1556 223.531C35.6616 223.946 37.1078 224.553 38.4585 225.338C39.7891 226.112 41.0146 227.054 42.1048 228.141C43.1972 229.234 44.1407 230.466 44.911 231.805C45.6932 233.157 46.3021 234.601 46.7232 236.104C47.584 239.229 47.584 242.528 46.7232 245.653C46.3038 247.146 45.6948 248.578 44.911 249.915C44.1373 251.238 43.1939 252.454 42.1048 253.532C41.0106 254.614 39.7858 255.556 38.4585 256.335C37.1108 257.126 35.6638 257.733 34.1556 258.142C31.8434 258.779 29.4271 258.947 27.0488 258.637C24.6706 258.327 22.3785 257.544 20.3077 256.335C17.6506 254.775 15.434 252.566 13.8662 249.915C13.074 248.578 12.4645 247.141 12.054 245.642C11.6257 244.081 11.4122 242.468 11.4194 240.849ZM20.5131 240.827C20.5036 242.069 20.7263 243.302 21.1698 244.462C21.5846 245.549 22.2076 246.545 23.0039 247.394C23.7963 248.234 24.751 248.905 25.8102 249.366C26.941 249.84 28.155 250.084 29.3813 250.084C30.6076 250.084 31.8216 249.84 32.9524 249.366C34.0164 248.908 34.9753 248.237 35.7696 247.394C36.5659 246.545 37.1889 245.549 37.6038 244.462C38.4792 242.12 38.4792 239.542 37.6038 237.2C37.1909 236.101 36.5679 235.093 35.7696 234.231C34.951 233.36 33.9623 232.665 32.8645 232.19C31.7667 231.716 30.5831 231.471 29.3868 231.471C28.1905 231.471 27.0069 231.716 25.909 232.19C24.8112 232.665 23.8225 233.36 23.0039 234.231C22.2056 235.093 21.5826 236.101 21.1698 237.2C20.7282 238.358 20.5056 239.588 20.5131 240.827Z" fill="#0F1E42"/>
<path d="M56.6019 248.97C57.0142 249.382 57.4763 249.742 57.9775 250.04C58.4333 250.31 58.9091 250.545 59.4008 250.743C59.7893 250.896 60.1891 251.019 60.5967 251.11C60.8271 251.172 61.0629 251.213 61.301 251.231C61.6018 251.231 61.9796 251.231 62.4418 251.194C62.891 251.173 63.3365 251.102 63.7697 250.982C64.1758 250.876 64.5523 250.68 64.8702 250.406C65.0255 250.264 65.1472 250.09 65.2265 249.895C65.3059 249.701 65.3408 249.491 65.3288 249.281C65.3486 248.915 65.2579 248.551 65.0683 248.237C64.8757 247.96 64.6173 247.734 64.3163 247.581C63.931 247.378 63.5252 247.215 63.1058 247.097C62.6289 246.958 62.0933 246.793 61.4991 246.606C59.8755 246.207 58.3107 245.598 56.844 244.796C55.743 244.191 54.7601 243.393 53.9424 242.44C53.2599 241.624 52.754 240.676 52.4567 239.655C52.1695 238.624 52.0263 237.559 52.0312 236.489C52.0156 235.262 52.2816 234.049 52.8089 232.941C53.3256 231.875 54.0782 230.941 55.0098 230.208C56.0336 229.413 57.1968 228.817 58.4397 228.449C60.7842 227.778 63.2511 227.653 65.6516 228.082C66.502 228.244 67.3305 228.505 68.1204 228.859C68.9307 229.228 69.6982 229.684 70.4094 230.219C71.2028 230.819 71.9462 231.481 72.6324 232.201C72.8646 232.441 73.0093 232.752 73.0432 233.084C73.0239 233.26 72.9666 233.43 72.8754 233.582C72.7843 233.734 72.6613 233.864 72.515 233.964C71.9036 234.465 71.3203 234.953 70.7652 235.43C70.2101 235.906 69.6341 236.446 69.0374 237.049C68.877 237.193 68.6826 237.294 68.4725 237.342C68.2955 237.387 68.1102 237.387 67.9333 237.342C67.756 237.293 67.5885 237.214 67.438 237.108C67.2793 236.995 67.1373 236.861 67.0162 236.709C66.5164 236.132 65.8662 235.706 65.138 235.477C64.498 235.275 63.8319 235.168 63.1608 235.158C62.5249 235.129 61.8924 235.266 61.3267 235.558C61.111 235.675 60.9354 235.853 60.8223 236.071C60.7092 236.288 60.6638 236.535 60.692 236.778C60.697 236.96 60.7404 237.139 60.8194 237.303C60.8985 237.468 61.0113 237.613 61.1506 237.731C61.4508 237.974 61.7926 238.16 62.1594 238.281C62.5728 238.427 62.9972 238.541 63.4286 238.621C63.8761 238.709 64.287 238.808 64.6611 238.914C65.9803 239.329 67.2749 239.819 68.5385 240.38C69.6529 240.871 70.6839 241.533 71.5942 242.341C72.4552 243.114 73.1406 244.062 73.6045 245.122C74.1141 246.373 74.3577 247.715 74.3198 249.065C74.3444 250.502 74.0263 251.924 73.3917 253.213C72.7853 254.417 71.9137 255.468 70.8422 256.288C69.6894 257.151 68.3875 257.796 67.0015 258.19C65.4516 258.635 63.8456 258.856 62.2327 258.845C61.2403 258.843 60.25 258.756 59.2724 258.585C58.274 258.415 57.2973 258.136 56.3598 257.753C55.4131 257.371 54.5144 256.879 53.6819 256.288C52.8232 255.673 52.0625 254.931 51.4259 254.089C51.2603 253.88 51.1291 253.646 51.0371 253.396C50.9527 253.162 50.9129 252.913 50.9197 252.664C50.9245 252.441 50.9731 252.222 51.0628 252.019C51.1527 251.817 51.2944 251.642 51.4736 251.513L54.5036 248.486C54.628 248.351 54.7849 248.249 54.9596 248.192C55.1342 248.134 55.3207 248.122 55.5014 248.156C55.9198 248.35 56.2943 248.627 56.6019 248.97Z" fill="#0F1E42"/>
<path d="M81.1575 223.784C81.1418 223.576 81.1774 223.366 81.2612 223.175C81.3449 222.983 81.4743 222.815 81.638 222.685C82.0603 222.388 82.5238 222.155 83.0136 221.992L88.3474 220.138C88.4207 220.121 88.4958 220.112 88.5711 220.112H88.7729C89.3525 220.112 89.7413 220.281 89.9357 220.618C90.1496 221.026 90.2509 221.484 90.2292 221.944L90.2072 228.398H93.4243C93.8757 228.379 94.3161 228.54 94.6495 228.845C94.816 229.023 94.9437 229.234 95.0245 229.464C95.1053 229.694 95.1375 229.939 95.119 230.182V234.711C95.1418 234.971 95.112 235.233 95.0313 235.481C94.9507 235.729 94.8208 235.958 94.6495 236.155C94.486 236.309 94.2934 236.429 94.083 236.507C93.8727 236.586 93.6487 236.622 93.4243 236.613H90.2035L90.2255 256.423C90.2432 256.672 90.206 256.922 90.1166 257.155C90.0273 257.388 89.8879 257.598 89.7083 257.772C89.3057 258.098 88.7951 258.262 88.2777 258.23H82.966C81.7603 258.23 81.1575 257.628 81.1575 256.423L81.1318 236.613H78.7144C77.5063 236.613 76.9035 235.979 76.9059 234.711V230.193C76.9059 229.006 77.5075 228.409 78.7144 228.409H81.1318L81.1575 223.784Z" fill="#0F1E42"/>
<path d="M123.64 254.679C122.277 255.937 120.701 256.942 118.985 257.647C117.249 258.36 115.389 258.721 113.512 258.71C109.373 258.729 105.389 257.143 102.397 254.287C100.949 252.891 99.7839 251.229 98.9671 249.391C98.1097 247.464 97.6768 245.376 97.6978 243.268C97.6911 240.597 98.3585 237.968 99.6384 235.624C100.257 234.497 101.013 233.452 101.891 232.513C102.77 231.574 103.77 230.757 104.866 230.083C105.981 229.404 107.181 228.876 108.435 228.511C109.756 228.132 111.125 227.944 112.499 227.95C113.78 227.951 115.054 228.129 116.285 228.478C118.693 229.158 120.891 230.433 122.675 232.187C123.555 233.051 124.328 234.016 124.979 235.063C125.621 236.104 126.122 237.225 126.468 238.398C126.823 239.587 127.001 240.822 126.997 242.062C126.997 242.876 126.997 243.528 126.964 244.056C126.961 244.493 126.834 244.92 126.597 245.287C126.321 245.627 125.929 245.853 125.496 245.921C124.756 246.058 124.004 246.117 123.251 246.097H106.344C106.461 246.998 106.788 247.859 107.298 248.611C107.739 249.249 108.301 249.794 108.952 250.216C109.567 250.609 110.242 250.899 110.951 251.073C111.604 251.239 112.274 251.327 112.947 251.333C113.531 251.331 114.113 251.273 114.686 251.157C115.272 251.042 115.849 250.885 116.414 250.688C116.94 250.503 117.45 250.275 117.94 250.007C118.347 249.788 118.723 249.516 119.058 249.197C119.26 249.027 119.476 248.873 119.704 248.739C119.879 248.637 120.078 248.584 120.28 248.585C120.503 248.593 120.719 248.667 120.9 248.798C121.163 248.976 121.409 249.18 121.633 249.406L124.124 252.224C124.271 252.383 124.382 252.572 124.451 252.777C124.499 252.94 124.524 253.109 124.524 253.279C124.531 253.571 124.439 253.856 124.264 254.089C124.086 254.315 123.876 254.514 123.64 254.679ZM112.338 235.125C111.727 235.126 111.123 235.251 110.563 235.492C109.983 235.741 109.441 236.069 108.952 236.467C107.971 237.272 107.178 238.281 106.626 239.424H118.633C118.318 238.836 117.961 238.271 117.565 237.735C117.19 237.218 116.747 236.755 116.248 236.357C115.741 235.957 115.169 235.647 114.557 235.441C113.84 235.212 113.09 235.104 112.338 235.122V235.125Z" fill="#0F1E42"/>
<path d="M153.174 255.309C152.719 255.758 152.237 256.176 151.728 256.562C151.175 256.986 150.586 257.36 149.967 257.68C149.314 258.015 148.628 258.281 147.921 258.475C147.167 258.684 146.388 258.788 145.606 258.783C143.587 258.802 141.586 258.394 139.737 257.585C137.982 256.821 136.402 255.707 135.093 254.312C133.775 252.891 132.745 251.229 132.059 249.417C130.601 245.507 130.601 241.204 132.059 237.295C132.746 235.488 133.775 233.829 135.089 232.41C136.392 231.018 137.968 229.908 139.718 229.149C141.57 228.348 143.57 227.945 145.588 227.965C146.38 227.959 147.172 228.032 147.95 228.185C148.623 228.323 149.279 228.539 149.901 228.83C150.478 229.106 151.022 229.445 151.523 229.841C152.019 230.237 152.486 230.668 152.92 231.131V221.332C152.906 220.867 153.07 220.414 153.379 220.065C153.556 219.884 153.771 219.744 154.008 219.654C154.245 219.565 154.498 219.529 154.751 219.548H160.041C160.262 219.552 160.481 219.596 160.686 219.68C160.913 219.766 161.124 219.89 161.31 220.046C161.496 220.203 161.651 220.395 161.765 220.611C161.884 220.836 161.945 221.088 161.941 221.344V256.434C161.941 257.64 161.31 258.241 160.041 258.241H155.452C155.201 258.254 154.951 258.214 154.718 258.124C154.546 258.048 154.396 257.931 154.281 257.783C154.15 257.612 154.043 257.423 153.966 257.222C153.871 256.995 153.753 256.731 153.599 256.434L153.174 255.309ZM139.428 243.359C139.422 244.344 139.585 245.322 139.909 246.251C140.208 247.113 140.675 247.908 141.285 248.589C141.887 249.251 142.618 249.782 143.434 250.15C144.31 250.54 145.26 250.737 146.218 250.725C147.189 250.732 148.151 250.547 149.05 250.183C149.91 249.839 150.696 249.334 151.365 248.695C152.028 248.052 152.565 247.292 152.95 246.452C153.352 245.581 153.58 244.64 153.621 243.682V243.352C153.623 242.37 153.431 241.398 153.056 240.49C152.691 239.601 152.16 238.79 151.493 238.097C150.823 237.405 150.025 236.85 149.142 236.463C148.217 236.06 147.217 235.856 146.207 235.866C145.271 235.853 144.344 236.046 143.491 236.432C142.639 236.817 141.881 237.386 141.274 238.097C140.668 238.801 140.201 239.613 139.898 240.49C139.579 241.413 139.42 242.383 139.428 243.359Z" fill="#0F1E42"/>
<path d="M177.234 231.567C177.581 231.078 177.996 230.642 178.466 230.27C179.024 229.82 179.63 229.435 180.275 229.123C181 228.772 181.76 228.497 182.542 228.302C183.404 228.089 184.288 227.983 185.176 227.987C186.784 227.951 188.378 228.308 189.816 229.028C191.102 229.697 192.213 230.658 193.059 231.835C193.943 233.092 194.588 234.5 194.963 235.99C195.386 237.65 195.594 239.357 195.583 241.069V256.442C195.622 256.92 195.493 257.397 195.216 257.79C195.057 257.954 194.864 258.08 194.65 258.159C194.436 258.238 194.207 258.269 193.98 258.248H188.551C187.876 258.248 187.413 258.135 187.164 257.907C186.915 257.684 186.797 257.24 186.797 256.584V241.062C186.809 240.416 186.684 239.776 186.43 239.182C186.179 238.617 185.824 238.104 185.385 237.669C184.471 236.785 183.249 236.292 181.977 236.294C181.407 236.296 180.843 236.412 180.319 236.635C179.774 236.863 179.277 237.19 178.852 237.599C178.409 238.03 178.044 238.535 177.773 239.09C177.476 239.691 177.304 240.345 177.267 241.014V256.511C177.266 256.785 177.214 257.056 177.113 257.31C177.026 257.556 176.866 257.77 176.654 257.922C176.476 258.035 176.282 258.122 176.078 258.179C175.876 258.228 175.667 258.252 175.458 258.248H170.114C169.863 258.288 169.606 258.269 169.364 258.194C169.122 258.119 168.9 257.989 168.716 257.814C168.532 257.639 168.39 257.425 168.303 257.187C168.215 256.949 168.183 256.694 168.21 256.442V221.358C168.187 220.887 168.347 220.425 168.657 220.068C168.853 219.886 169.085 219.748 169.338 219.662C169.591 219.577 169.859 219.547 170.125 219.574H175.436C175.86 219.589 176.273 219.716 176.632 219.94C176.845 220.09 177.006 220.303 177.091 220.548C177.188 220.787 177.24 221.042 177.245 221.3L177.234 231.567Z" fill="#0F1E42"/>
<path d="M199.412 230.684C199.291 230.434 199.227 230.16 199.227 229.882C199.227 229.604 199.291 229.329 199.412 229.079C199.655 228.632 200.194 228.409 201.023 228.409H206.826C207.003 228.403 207.18 228.432 207.345 228.495C207.511 228.558 207.662 228.653 207.791 228.775C208.046 229.029 208.238 229.339 208.352 229.68L215.003 248.574L221.51 229.68C221.613 229.281 221.845 228.927 222.171 228.672C222.505 228.482 222.887 228.392 223.271 228.412H229.309C229.663 228.397 230.015 228.457 230.344 228.588C230.567 228.682 230.752 228.847 230.872 229.057C230.975 229.261 231.012 229.491 230.978 229.717C230.947 229.968 230.883 230.215 230.787 230.45L228.832 235.257L226.631 240.703C225.871 242.591 225.099 244.509 224.317 246.456C223.534 248.403 222.77 250.316 222.024 252.194C221.29 254.071 220.574 255.874 219.874 257.603C219.175 259.333 218.545 260.921 217.985 262.367C217.413 263.813 216.915 265.085 216.492 266.182C216.069 267.279 215.747 268.124 215.527 268.717L215.601 268.6C215.508 268.991 215.302 269.346 215.01 269.623C214.727 269.873 214.357 270.004 213.979 269.989H208.55C207.846 269.989 207.365 269.853 207.105 269.579C206.824 269.24 206.685 268.807 206.716 268.369C206.709 268.209 206.737 268.048 206.8 267.9C206.832 267.824 206.876 267.754 206.929 267.691L210.619 258.113L199.412 230.684Z" fill="#0F1E42"/>
</g>
<defs>
<linearGradient id="paint0_linear_1_127" x1="171.005" y1="17.7616" x2="196.724" y2="17.7616" gradientUnits="userSpaceOnUse">
<stop stop-color="#D4022A"/>
<stop offset="1" stop-color="#E72B47"/>
</linearGradient>
<linearGradient id="paint1_linear_1_127" x1="8683.28" y1="4628" x2="9362.17" y2="4628" gradientUnits="userSpaceOnUse">
<stop stop-color="#D4022A"/>
<stop offset="1" stop-color="#E72B47"/>
</linearGradient>
<linearGradient id="paint2_linear_1_127" x1="17789.6" y1="8084.15" x2="21418.2" y2="8084.15" gradientUnits="userSpaceOnUse">
<stop stop-color="#D4022A"/>
<stop offset="1" stop-color="#E72B47"/>
</linearGradient>
<linearGradient id="paint3_linear_1_127" x1="9388.47" y1="8368.97" x2="10046.9" y2="8368.97" gradientUnits="userSpaceOnUse">
<stop stop-color="#D4022A"/>
<stop offset="1" stop-color="#E72B47"/>
</linearGradient>
<linearGradient id="paint4_linear_1_127" x1="21996.4" y1="11998.7" x2="26763.9" y2="11998.7" gradientUnits="userSpaceOnUse">
<stop stop-color="#D4022A"/>
<stop offset="1" stop-color="#E72B47"/>
</linearGradient>
<linearGradient id="paint5_linear_1_127" x1="17891.4" y1="12038" x2="20483.8" y2="12038" gradientUnits="userSpaceOnUse">
<stop stop-color="#D4022A"/>
<stop offset="1" stop-color="#E72B47"/>
</linearGradient>
<linearGradient id="paint6_linear_1_127" x1="395.962" y1="8368.97" x2="1054.15" y2="8368.97" gradientUnits="userSpaceOnUse">
<stop stop-color="#D4022A"/>
<stop offset="1" stop-color="#E72B47"/>
</linearGradient>
<linearGradient id="paint7_linear_1_127" x1="3.39599" y1="12042.1" x2="2597.64" y2="12042.1" gradientUnits="userSpaceOnUse">
<stop stop-color="#D4022A"/>
<stop offset="1" stop-color="#E72B47"/>
</linearGradient>
<linearGradient id="paint8_linear_1_127" x1="934.082" y1="11998.7" x2="5701.01" y2="11998.7" gradientUnits="userSpaceOnUse">
<stop stop-color="#D4022A"/>
<stop offset="1" stop-color="#E72B47"/>
</linearGradient>
<linearGradient id="paint9_linear_1_127" x1="1239.07" y1="4628" x2="1917.99" y2="4628" gradientUnits="userSpaceOnUse">
<stop stop-color="#D4022A"/>
<stop offset="1" stop-color="#E72B47"/>
</linearGradient>
<linearGradient id="paint10_linear_1_127" x1="2776.19" y1="8085.71" x2="6404.62" y2="8085.71" gradientUnits="userSpaceOnUse">
<stop stop-color="#D4022A"/>
<stop offset="1" stop-color="#E72B47"/>
</linearGradient>
<linearGradient id="paint11_linear_1_127" x1="3154.89" y1="1721.81" x2="4960.23" y2="1721.81" gradientUnits="userSpaceOnUse">
<stop stop-color="#D4022A"/>
<stop offset="1" stop-color="#E72B47"/>
</linearGradient>
<clipPath id="clip0_1_127">
<rect width="241" height="270" fill="white"/>
</clipPath>
</defs>
</svg>
