<svg width="243" height="272" viewBox="0 0 243 272" fill="none" xmlns="http://www.w3.org/2000/svg">
<g clip-path="url(#clip0_1_106)">
<path d="M202.251 153.441C196.67 155.486 186.716 159.901 178.39 163.696C181.871 165.51 185.469 167.089 189.161 168.421C194.473 170.328 200.112 171.163 205.75 170.88H205.813C212.84 170.511 216.055 165.051 215.008 159.931C214.187 155.899 210.847 152.699 206.238 152.699C204.876 152.709 203.526 152.959 202.251 153.437" fill="#0F1E42"/>
<path d="M219.539 123.668C211.587 131.284 192.675 153.013 192.675 153.013C192.675 153.013 219.528 142.514 229.385 137.589C235.41 134.581 236.12 128.545 233.228 124.455C232.447 123.319 231.404 122.389 230.186 121.741C228.969 121.093 227.613 120.748 226.234 120.733C224.014 120.733 221.68 121.619 219.539 123.668Z" fill="#0F1E42"/>
<path d="M225.993 87.8598C221.422 97.8677 211.875 125.03 211.875 125.03C211.875 125.03 232.958 105.384 240.293 97.1774C244.779 92.1605 243.207 86.2872 239.009 83.5517C237.575 82.6023 235.896 82.0893 234.175 82.0751C231.009 82.0751 227.817 83.8581 225.993 87.8451" fill="#0F1E42"/>
<path d="M218.163 56.7065C217.937 66.5852 219.694 92.382 219.694 92.382C219.694 92.382 230.121 68.7152 233.269 59.346C235.196 53.6166 231.815 49.327 227.377 48.5518C226.909 48.4709 226.435 48.4302 225.96 48.43C222.002 48.43 218.289 51.3094 218.163 56.7065Z" fill="#0F1E42"/>
<path d="M204.888 17.6052C200.472 18.5539 197.276 22.9764 199.425 28.6246C202.943 37.8536 214.298 61.1106 214.298 61.1106C214.298 61.1106 215.038 35.2694 214.416 25.4055C214.087 20.1635 210.455 17.4354 206.619 17.4354C206.037 17.4345 205.457 17.4964 204.888 17.62" fill="#0F1E42"/>
<path d="M175.709 1.22192C172.21 3.50701 170.9 8.40206 174.647 12.5846C180.772 19.4214 198.36 35.8084 198.36 35.8084C198.36 35.8084 190.382 13.1494 186.561 4.79907C185.041 1.47664 182.381 0 179.759 0C178.324 0.00792413 176.921 0.432482 175.724 1.22192" fill="#0F1E42"/>
<path d="M27.9921 159.927C26.949 165.047 30.1632 170.518 37.1908 170.876H37.2537C42.8906 171.159 48.5277 170.324 53.8389 168.418C57.5313 167.086 61.1296 165.507 64.6096 163.692C56.2837 159.898 46.3304 155.482 40.749 153.437C39.4738 152.959 38.124 152.709 36.7618 152.699C32.1568 152.699 28.8169 155.9 27.9921 159.931V159.927ZM9.77206 124.455C6.87964 128.545 7.5898 134.581 13.6187 137.589C23.4722 142.514 50.3251 153.013 50.3251 153.013C50.3251 153.013 31.4134 131.284 23.4611 123.668C21.3195 121.619 18.9745 120.733 16.7701 120.733C15.3901 120.748 14.0337 121.093 12.8157 121.741C11.5977 122.389 10.5537 123.319 9.77206 124.455ZM3.98352 83.5518C-0.214549 86.2872 -1.78651 92.1605 2.70376 97.1774C10.0421 105.384 31.1175 125.03 31.1175 125.03C31.1175 125.03 21.5747 97.8677 17.0142 87.8598C15.1648 83.8729 11.9839 82.0899 8.82148 82.0899C7.09946 82.1033 5.41853 82.6164 3.98352 83.5665V83.5518ZM15.6235 48.5666C11.185 49.3418 7.80433 53.6314 9.73137 59.3608C12.879 68.7153 23.3021 92.382 23.3021 92.382C23.3021 92.382 25.0553 66.5852 24.8296 56.7065C24.7076 51.3094 20.9903 48.43 17.0327 48.43C16.5579 48.4304 16.084 48.4711 15.6161 48.5518L15.6235 48.5666ZM28.5617 25.3908C27.9477 35.2547 28.68 61.0958 28.68 61.0958C28.68 61.0958 40.0389 37.8609 43.5527 28.6098C45.7016 22.9617 42.4948 18.5392 38.0933 17.5904C37.5231 17.4688 36.9417 17.407 36.3586 17.4058C32.523 17.4058 28.8909 20.1339 28.5617 25.376V25.3908ZM56.4391 4.79907C52.6183 13.1494 44.6438 35.8084 44.6438 35.8084C44.6438 35.8084 62.2276 19.4399 68.3527 12.6031C72.0996 8.42052 70.7939 3.52547 67.2949 1.24037C66.0959 0.442361 64.6895 0.0112499 63.2485 0C60.615 0 57.9556 1.47664 56.4317 4.79907" fill="#0F1E42"/>
<path d="M5.07098 193.033C8.94124 194.079 12.8651 194.916 16.8256 195.54C20.5609 196.097 24.3336 196.369 28.1104 196.352C38.2891 196.327 48.3975 194.668 58.0481 191.438C65.2014 189.067 72.0708 185.915 78.5317 182.04C81.3686 180.463 88.485 175.524 96.6075 175.52C97.8372 175.524 99.0636 175.648 100.269 175.889C103.369 176.406 111.769 179.795 115.571 189.703H127.444C131.25 179.795 139.65 176.414 142.746 175.889C143.951 175.648 145.178 175.524 146.407 175.52C154.545 175.52 161.646 180.463 164.483 182.04C170.945 185.913 177.814 189.065 184.967 191.438C194.615 194.667 204.721 196.326 214.897 196.352C218.67 196.368 222.439 196.097 226.171 195.54C230.131 194.916 234.055 194.079 237.925 193.033L239.057 196.304C235.043 197.816 230.924 199.035 226.733 199.951C219.893 201.475 212.903 202.229 205.894 202.199C198.307 202.222 190.743 201.355 183.358 199.615C175.575 197.789 168.022 195.099 160.84 191.594C160.011 191.202 155.514 188.987 151.734 187.961C150.286 187.57 148.794 187.366 147.295 187.356C146.324 187.349 145.356 187.457 144.41 187.677C140.608 188.817 138.747 192.107 137.823 194.731L139.302 199.951C139.938 202.188 138.536 204.503 136.55 204.503H106.446C104.456 204.503 103.054 202.188 103.691 199.951L105.17 194.72C104.231 192.084 102.341 188.814 98.5789 187.677C97.6331 187.457 96.6648 187.35 95.6939 187.356C94.1945 187.366 92.7027 187.57 91.2554 187.961C87.4864 189.009 82.9887 191.224 82.1602 191.594C74.9833 195.093 67.4365 197.78 59.6607 199.604C52.2758 201.343 44.7119 202.211 37.1243 202.188C30.1124 202.222 23.1189 201.472 16.2745 199.951C12.0773 199.035 7.95221 197.816 3.93176 196.304L5.07098 193.033Z" fill="#0F1E42"/>
<path d="M143.045 155.047C150.391 155.047 159.53 157.413 170.627 164.209C188.976 175.45 205.484 177.325 214.449 177.325C216.819 177.36 219.188 177.203 221.533 176.857L232.381 191.165C230.336 191.619 228.135 192.059 225.83 192.413C222.211 192.95 218.556 193.21 214.897 193.192C204.957 193.157 195.086 191.537 185.658 188.393C178.653 186.071 171.928 182.982 165.604 179.182C165.252 178.987 164.834 178.739 164.357 178.444C160.773 176.314 154.101 172.353 146.396 172.353C145.044 172.345 143.693 172.469 142.365 172.722C138.418 173.379 130.199 177.104 125.794 186.506H117.202C112.812 177.126 104.582 173.401 100.698 172.766C99.3508 172.502 97.9807 172.37 96.6075 172.371C88.9067 172.371 82.2341 176.332 78.6464 178.462C78.1692 178.747 77.7513 178.994 77.3444 179.223C71.0286 183.014 64.3114 186.096 57.3157 188.411C47.8991 191.575 38.0314 193.195 28.0956 193.21C24.4364 193.226 20.7814 192.963 17.1622 192.424C14.8616 192.055 12.6571 191.63 10.6117 191.176L21.4638 176.868C23.8071 177.214 26.1746 177.371 28.5432 177.337C37.5089 177.337 54.0164 175.461 72.3659 164.22C83.4621 157.424 92.6054 155.058 99.9511 155.058C111.018 155.058 118.012 160.425 121.493 164.073C124.973 160.425 131.971 155.058 143.038 155.058" fill="#0F1E42"/>
<path d="M119.381 75.637C124.063 75.7009 128.734 76.1267 133.351 76.9106V59.0433L124.551 55.5732C123.94 55.3325 123.415 54.9136 123.045 54.3712C122.675 53.8287 122.477 53.1876 122.476 52.5313V47.6215C122.477 47.4196 122.527 47.2209 122.621 47.0426C122.716 46.8642 122.853 46.7117 123.021 46.5982C123.188 46.4847 123.38 46.4137 123.581 46.3913C123.782 46.3689 123.986 46.3958 124.174 46.4697L202.843 77.4791C203.333 77.6715 203.88 77.6615 204.363 77.4514C204.846 77.2413 205.226 76.8482 205.419 76.3587C205.612 75.8692 205.602 75.3233 205.391 74.8411C205.181 74.3589 204.787 73.9799 204.296 73.7875L125.513 42.7375C123.545 41.9622 121.356 41.9622 119.388 42.7375L40.4679 73.865C39.5774 74.2156 38.8132 74.8257 38.2749 75.6158C37.7366 76.4059 37.4491 77.3395 37.4498 78.2949V85.0173C37.4501 85.9726 37.738 86.9057 38.2762 87.6956C38.8144 88.4855 39.578 89.0958 40.4679 89.4472L68.3787 100.448V98.9051C68.3787 93.9879 70.7532 89.4878 74.5704 87.247C87.4124 79.7199 102.818 75.434 119.381 75.6407" fill="#0F1E42"/>
<path d="M204.814 87.2175L146.407 64.1894V80.1518C152.632 82.2092 158.601 84.9726 164.195 88.3877L164.916 88.8196L164.65 89.2626C158.853 86.2379 152.734 83.8751 146.407 82.2191V97.2143L139.879 91.8763L133.351 94.9588V79.7752C129.731 79.3569 126.091 79.1462 122.447 79.144C106.294 79.144 91.2739 83.1604 78.7499 90.0526C75.0253 92.1015 72.7099 96.1622 72.7099 100.57V131.133C72.7101 131.62 72.8163 132.101 73.0211 132.544C73.226 132.986 73.5246 133.379 73.8963 133.695C74.268 134.01 74.704 134.242 75.1742 134.373C75.6443 134.505 76.1375 134.533 76.6195 134.455C90.1791 132.24 105.806 130.981 122.447 130.981C139.088 130.981 154.715 132.244 168.274 134.455C168.756 134.533 169.249 134.505 169.72 134.373C170.19 134.242 170.626 134.01 170.997 133.695C171.369 133.379 171.668 132.986 171.873 132.544C172.077 132.101 172.184 131.62 172.184 131.133V102.154L204.814 89.2885C205.025 89.2088 205.206 89.067 205.334 88.8821C205.462 88.6971 205.53 88.4777 205.53 88.253C205.53 88.0282 205.462 87.8088 205.334 87.6239C205.206 87.4389 205.025 87.2972 204.814 87.2175Z" fill="#0F1E42"/>
<path d="M11.5142 242.633C11.5029 239.422 12.3535 236.266 13.9776 233.493C14.7617 232.148 15.7137 230.907 16.8108 229.801C17.9023 228.703 19.1348 227.753 20.4763 226.977C21.8354 226.2 23.2884 225.598 24.8001 225.187C27.9545 224.321 31.2847 224.321 34.439 225.187C35.9575 225.605 37.4158 226.217 38.7777 227.007C41.4747 228.574 43.7168 230.814 45.2838 233.508C46.0718 234.868 46.6857 236.322 47.1109 237.834C47.9789 240.984 47.9789 244.309 47.1109 247.458C46.6893 248.967 46.0752 250.414 45.2838 251.766C44.5024 253.099 43.5499 254.324 42.4505 255.41C41.3493 256.501 40.1154 257.45 38.7777 258.234C37.4188 259.03 35.9598 259.642 34.439 260.054C32.1077 260.696 29.6713 260.865 27.2733 260.553C24.8753 260.24 22.5643 259.452 20.4763 258.234C19.1389 257.452 17.9071 256.503 16.8108 255.41C15.717 254.319 14.7651 253.095 13.9776 251.766C13.1815 250.419 12.5683 248.971 12.1541 247.462C11.7222 245.889 11.5069 244.264 11.5142 242.633ZM20.6834 242.611C20.6718 243.863 20.8964 245.105 21.3455 246.273C21.7637 247.368 22.3919 248.372 23.1949 249.227C23.9925 250.073 24.9538 250.748 26.0207 251.213C27.1615 251.69 28.3862 251.936 29.6233 251.936C30.8604 251.936 32.0851 251.69 33.2258 251.213C34.2988 250.751 35.2655 250.075 36.0665 249.227C36.8694 248.372 37.4976 247.368 37.9159 246.273C38.7985 243.914 38.7985 241.316 37.9159 238.957C37.4996 237.85 36.8714 236.834 36.0665 235.966C35.2414 235.088 34.2446 234.388 33.1376 233.909C32.0306 233.43 30.8371 233.183 29.6307 233.183C28.4243 233.183 27.2307 233.43 26.1237 233.909C25.0168 234.388 24.0199 235.088 23.1949 235.966C22.3899 236.834 21.7618 237.85 21.3455 238.957C20.8985 240.123 20.674 241.363 20.6834 242.611Z" fill="#0F1E42"/>
<path d="M57.0716 250.814C57.4858 251.231 57.952 251.593 58.4586 251.892C58.917 252.164 59.3955 252.401 59.89 252.601C60.2832 252.754 60.6875 252.878 61.0995 252.97C61.3319 253.032 61.5697 253.072 61.8097 253.088C62.1093 253.088 62.494 253.088 62.96 253.055C63.4127 253.032 63.8617 252.96 64.2989 252.841C64.708 252.734 65.0874 252.536 65.4086 252.261C65.5651 252.118 65.6879 251.942 65.7678 251.746C65.8478 251.55 65.883 251.339 65.8709 251.128C65.8909 250.759 65.7994 250.392 65.6083 250.076C65.4133 249.796 65.153 249.568 64.8501 249.411C64.461 249.208 64.052 249.046 63.6295 248.928C63.1486 248.787 62.6086 248.621 62.0057 248.433C60.3698 248.03 58.7933 247.417 57.3157 246.609C56.205 246.001 55.2138 245.196 54.39 244.236C53.7018 243.414 53.1918 242.458 52.892 241.43C52.6055 240.391 52.4624 239.318 52.4667 238.24C52.4509 237.005 52.7192 235.783 53.2508 234.667C53.7706 233.592 54.5297 232.65 55.47 231.913C56.5023 231.113 57.6751 230.512 58.9284 230.141C61.2923 229.466 63.7797 229.339 66.2001 229.772C67.0575 229.935 67.893 230.198 68.6894 230.555C69.5064 230.926 70.2803 231.385 70.9974 231.924C71.7973 232.528 72.5469 233.196 73.2388 233.921C73.473 234.163 73.6189 234.476 73.6531 234.811C73.6335 234.988 73.5758 235.159 73.4839 235.312C73.392 235.465 73.268 235.596 73.1204 235.697C72.5028 236.199 71.9147 236.697 71.3524 237.174C70.7902 237.65 70.2132 238.207 69.614 238.805C69.4518 238.95 69.256 239.051 69.0444 239.101C68.866 239.146 68.6791 239.146 68.5007 239.101C68.322 239.051 68.1531 238.971 68.0014 238.864C67.8405 238.752 67.6971 238.616 67.576 238.462C67.0713 237.88 66.4143 237.451 65.6786 237.222C65.0346 237.018 64.3641 236.91 63.6886 236.9C63.0475 236.87 62.4096 237.009 61.8393 237.303C61.6219 237.42 61.4447 237.6 61.3307 237.82C61.2166 238.039 61.1709 238.287 61.1994 238.532C61.2044 238.716 61.2482 238.896 61.3278 239.061C61.4075 239.227 61.5213 239.373 61.6617 239.492C61.9644 239.736 62.3091 239.924 62.6789 240.046C63.0958 240.193 63.5237 240.308 63.9587 240.389C64.4099 240.478 64.8242 240.573 65.2014 240.684C66.5316 241.102 67.8369 241.595 69.111 242.161C70.2342 242.656 71.2735 243.322 72.1921 244.136C73.0599 244.914 73.7499 245.87 74.2153 246.938C74.7372 248.196 74.9893 249.549 74.955 250.91C74.9719 252.359 74.6449 253.791 74.0007 255.089C73.3894 256.302 72.5105 257.361 71.4301 258.186C70.2683 259.056 68.9554 259.704 67.5575 260.098C65.9952 260.55 64.3757 260.774 62.7492 260.763C61.7485 260.76 60.75 260.673 59.7643 260.501C58.7576 260.329 57.7727 260.048 56.8275 259.663C55.8729 259.277 54.9668 258.781 54.1274 258.186C53.2615 257.567 52.4946 256.82 51.8527 255.971C51.6844 255.762 51.5519 255.526 51.4606 255.273C51.3737 255.037 51.3335 254.787 51.3422 254.535C51.3477 254.312 51.3954 254.091 51.4828 253.885C51.5759 253.684 51.7184 253.508 51.8971 253.376L54.9559 250.327C55.0813 250.19 55.2396 250.088 55.4156 250.03C55.5917 249.972 55.7798 249.96 55.962 249.994C56.3838 250.189 56.7614 250.468 57.0716 250.814Z" fill="#0F1E42"/>
<path d="M81.831 225.442C81.8152 225.232 81.8511 225.021 81.9356 224.828C82.02 224.635 82.1505 224.465 82.3155 224.334C82.7415 224.037 83.2088 223.803 83.7026 223.64L89.0805 221.769C89.1549 221.754 89.2304 221.747 89.3062 221.746H89.5096C90.094 221.746 90.4861 221.916 90.6821 222.256C90.8961 222.668 90.9981 223.129 90.978 223.592L90.9558 230.093H94.1996C94.4245 230.084 94.649 230.119 94.8604 230.196C95.0717 230.273 95.2657 230.391 95.4313 230.543C95.5997 230.723 95.7288 230.935 95.8103 231.167C95.8918 231.399 95.924 231.646 95.9047 231.891V236.454C95.9281 236.715 95.8983 236.979 95.8169 237.229C95.7355 237.479 95.6044 237.71 95.4313 237.908C95.2673 238.063 95.0738 238.184 94.8623 238.263C94.6507 238.343 94.4254 238.379 94.1996 238.37H90.9521L90.9743 258.326C90.9921 258.577 90.9546 258.829 90.8645 259.063C90.7744 259.298 90.6339 259.51 90.4528 259.685C90.0469 260.014 89.532 260.178 89.0103 260.146H83.6545C82.4388 260.146 81.831 259.54 81.831 258.326L81.8051 238.37H79.3676C78.1495 238.37 77.5405 237.731 77.5405 236.454V231.898C77.5405 230.7 78.1495 230.1 79.3676 230.1H81.8051L81.831 225.442Z" fill="#0F1E42"/>
<path d="M124.648 256.565C123.275 257.833 121.687 258.846 119.958 259.556C118.212 260.271 116.341 260.635 114.454 260.626C110.281 260.646 106.263 259.048 103.247 256.17C101.785 254.765 100.611 253.09 99.7884 251.239C98.9239 249.298 98.4875 247.194 98.5087 245.07C98.5029 242.38 99.1745 239.732 100.462 237.369C101.087 236.234 101.851 235.181 102.736 234.235C103.622 233.289 104.631 232.465 105.736 231.788C106.86 231.103 108.07 230.57 109.335 230.204C110.667 229.821 112.047 229.63 113.433 229.635C114.724 229.637 116.009 229.817 117.25 230.171C118.466 230.515 119.633 231.011 120.723 231.647C121.799 232.28 122.793 233.043 123.682 233.918C124.569 234.788 125.349 235.761 126.005 236.815C126.652 237.864 127.157 238.994 127.507 240.175C127.864 241.373 128.043 242.617 128.039 243.866C128.039 244.686 128.039 245.343 128.006 245.875C128.004 246.315 127.876 246.745 127.636 247.115C127.358 247.457 126.963 247.685 126.527 247.754C125.78 247.892 125.022 247.951 124.263 247.931H107.227C107.345 248.838 107.673 249.705 108.185 250.463C108.631 251.106 109.199 251.655 109.856 252.08C110.475 252.477 111.155 252.769 111.869 252.944C112.528 253.111 113.204 253.199 113.884 253.206C114.473 253.204 115.06 253.145 115.638 253.029C116.229 252.912 116.811 252.754 117.38 252.556C117.91 252.37 118.425 252.14 118.918 251.87C119.323 251.648 119.696 251.374 120.028 251.054C120.233 250.882 120.452 250.728 120.683 250.592C120.867 250.482 121.08 250.428 121.295 250.439C121.509 250.449 121.716 250.523 121.888 250.652C122.149 250.831 122.39 251.037 122.61 251.264L125.125 254.103C125.27 254.265 125.382 254.455 125.454 254.661C125.502 254.825 125.525 254.995 125.524 255.166C125.532 255.46 125.441 255.747 125.265 255.982C125.089 256.206 124.881 256.402 124.648 256.565ZM113.252 236.867C112.637 236.868 112.03 236.994 111.465 237.236C110.881 237.487 110.335 237.818 109.842 238.218C109.335 238.629 108.878 239.097 108.48 239.614C108.095 240.104 107.765 240.635 107.497 241.197H119.617C119.298 240.606 118.939 240.037 118.541 239.496C118.162 238.977 117.715 238.51 117.213 238.108C116.701 237.706 116.125 237.394 115.508 237.185C114.784 236.954 114.026 236.846 113.267 236.863L113.252 236.867Z" fill="#0F1E42"/>
<path d="M154.445 257.2C153.986 257.651 153.499 258.073 152.987 258.463C152.429 258.89 151.833 259.266 151.208 259.589C150.551 259.926 149.861 260.194 149.148 260.39C148.388 260.6 147.603 260.705 146.814 260.7C144.778 260.72 142.761 260.308 140.896 259.493C139.127 258.723 137.534 257.601 136.214 256.196C134.886 254.764 133.847 253.089 133.155 251.264C131.685 247.326 131.685 242.991 133.155 239.053C133.848 237.232 134.885 235.561 136.21 234.132C137.524 232.729 139.113 231.611 140.878 230.846C142.745 230.038 144.761 229.63 146.796 229.65C147.595 229.645 148.393 229.72 149.178 229.875C149.857 230.015 150.517 230.233 151.145 230.525C151.727 230.803 152.275 231.145 152.78 231.544C153.281 231.943 153.752 232.377 154.19 232.843V222.972C154.175 222.503 154.341 222.046 154.652 221.695C154.83 221.512 155.047 221.371 155.286 221.281C155.525 221.192 155.781 221.155 156.035 221.174H161.365C161.59 221.178 161.812 221.223 162.02 221.307C162.248 221.394 162.459 221.518 162.645 221.676C162.835 221.833 162.993 222.026 163.107 222.245C163.228 222.472 163.289 222.726 163.285 222.983V258.334C163.285 259.549 162.645 260.156 161.365 260.154H156.742C156.489 260.167 156.237 260.126 156.002 260.036C155.83 259.959 155.68 259.841 155.565 259.692C155.433 259.52 155.326 259.33 155.247 259.127C155.151 258.899 155.033 258.633 154.877 258.334L154.445 257.2ZM140.586 245.162C140.577 246.154 140.741 247.139 141.07 248.075C141.37 248.945 141.842 249.745 142.457 250.43C143.064 251.097 143.802 251.632 144.625 252.003C145.507 252.396 146.465 252.594 147.432 252.582C148.41 252.589 149.381 252.403 150.287 252.036C151.154 251.69 151.947 251.181 152.621 250.537C153.29 249.889 153.832 249.123 154.219 248.278C154.625 247.401 154.854 246.452 154.892 245.487V245.155C154.896 244.166 154.704 243.186 154.326 242.272C153.959 241.376 153.424 240.558 152.751 239.861C152.075 239.164 151.27 238.604 150.38 238.215C149.447 237.807 148.439 237.602 147.421 237.613C146.452 237.599 145.492 237.805 144.613 238.215C143.783 238.605 143.045 239.166 142.446 239.861C141.833 240.569 141.363 241.387 141.059 242.272C140.736 243.201 140.576 244.179 140.586 245.162Z" fill="#0F1E42"/>
<path d="M178.705 233.283C179.054 232.79 179.473 232.35 179.948 231.976C180.508 231.52 181.12 231.133 181.771 230.82C182.502 230.466 183.268 230.189 184.057 229.993C184.926 229.779 185.818 229.672 186.713 229.676C188.335 229.638 189.941 229.998 191.391 230.724C192.688 231.398 193.808 232.367 194.661 233.552C195.552 234.818 196.202 236.237 196.577 237.738C197.007 239.41 197.218 241.129 197.206 242.855V258.341C197.246 258.823 197.115 259.304 196.836 259.7C196.676 259.864 196.481 259.991 196.265 260.071C196.049 260.151 195.819 260.182 195.59 260.161H190.115C189.435 260.161 188.969 260.047 188.717 259.818C188.462 259.593 188.347 259.146 188.347 258.481V242.848C188.359 242.197 188.233 241.552 187.978 240.954C187.725 240.383 187.366 239.866 186.92 239.429C186 238.538 184.769 238.041 183.487 238.045C182.912 238.046 182.344 238.162 181.815 238.388C181.266 238.617 180.764 238.946 180.336 239.359C179.883 239.793 179.507 240.301 179.226 240.861C178.929 241.467 178.757 242.126 178.72 242.8V258.411C178.718 258.687 178.666 258.96 178.564 259.216C178.477 259.464 178.316 259.679 178.102 259.833C177.922 259.947 177.726 260.034 177.521 260.091C177.315 260.141 177.104 260.165 176.892 260.161H171.526C171.273 260.201 171.014 260.182 170.77 260.107C170.525 260.031 170.301 259.9 170.116 259.724C169.93 259.548 169.788 259.332 169.699 259.092C169.611 258.852 169.579 258.595 169.606 258.341V222.998C169.585 222.522 169.746 222.056 170.057 221.695C170.255 221.512 170.489 221.374 170.744 221.289C170.999 221.204 171.269 221.173 171.537 221.2H176.889C177.317 221.217 177.734 221.344 178.098 221.569C178.312 221.723 178.473 221.938 178.561 222.186C178.658 222.426 178.711 222.683 178.716 222.942L178.705 233.283Z" fill="#0F1E42"/>
<path d="M201.067 232.393C200.944 232.141 200.881 231.865 200.881 231.585C200.881 231.304 200.944 231.028 201.067 230.776C201.314 230.326 201.855 230.1 202.691 230.1H208.543C208.721 230.094 208.898 230.124 209.065 230.187C209.231 230.25 209.383 230.347 209.512 230.47C209.771 230.724 209.966 231.037 210.081 231.381L216.787 250.415L223.349 231.381C223.452 230.979 223.687 230.622 224.014 230.366C224.352 230.175 224.737 230.084 225.124 230.104H231.212C231.568 230.089 231.924 230.149 232.255 230.281C232.48 230.376 232.667 230.542 232.788 230.754C232.889 230.96 232.927 231.191 232.895 231.418C232.863 231.672 232.799 231.92 232.703 232.157L230.731 237L228.512 242.486C227.745 244.388 226.967 246.32 226.178 248.282C225.389 250.243 224.619 252.17 223.866 254.063C223.127 255.953 222.404 257.769 221.699 259.511C220.994 261.254 220.359 262.853 219.794 264.31C219.217 265.767 218.715 267.048 218.289 268.153C217.862 269.258 217.538 270.11 217.316 270.708L217.386 270.59C217.295 270.984 217.089 271.342 216.794 271.62C216.508 271.873 216.134 272.005 215.751 271.989H210.285C209.575 271.989 209.086 271.852 208.827 271.575C208.545 271.235 208.405 270.798 208.435 270.357C208.428 270.195 208.457 270.034 208.52 269.885C208.553 269.808 208.596 269.737 208.65 269.674L212.371 260.025L201.067 232.393Z" fill="#0F1E42"/>
</g>
<defs>
<clipPath id="clip0_1_106">
<rect width="243" height="272" fill="white"/>
</clipPath>
</defs>
</svg>
