<svg width="39" height="45" viewBox="0 0 39 45" fill="none" xmlns="http://www.w3.org/2000/svg">
<g clip-path="url(#clip0_43_4251)">
<path d="M32.268 24.9949C31.3775 25.328 29.7895 26.0472 28.4612 26.6654C29.0164 26.9609 29.5905 27.218 30.1796 27.4352C31.0271 27.7457 31.9267 27.8818 32.8263 27.8357H32.8363C33.9575 27.7755 34.4703 26.8861 34.3033 26.0521C34.1723 25.3954 33.6394 24.874 32.9041 24.874C32.6868 24.8757 32.4715 24.9165 32.268 24.9943" fill="white"/>
<path d="M35.0261 20.1451C33.7574 21.3856 30.7401 24.9251 30.7401 24.9251C30.7401 24.9251 35.0243 23.2149 36.597 22.4127C37.5583 21.9226 37.6716 20.9394 37.2101 20.2731C37.0855 20.0882 36.9191 19.9366 36.7249 19.8311C36.5306 19.7256 36.3143 19.6693 36.0942 19.667C35.7401 19.667 35.3678 19.8113 35.0261 20.1451Z" fill="white"/>
<path d="M36.0559 14.3121C35.3265 15.9423 33.8035 20.367 33.8035 20.367C33.8035 20.367 37.1671 17.1666 38.3373 15.8299C39.0531 15.0126 38.8023 14.0559 38.1325 13.6103C37.9037 13.4556 37.6358 13.3721 37.3613 13.3698C36.8561 13.3698 36.3468 13.6602 36.0559 14.3097" fill="white"/>
<path d="M34.8067 9.23725C34.7707 10.8465 35.051 15.0486 35.051 15.0486C35.051 15.0486 36.7145 11.1934 37.2167 9.66721C37.5241 8.73393 36.9848 8.03516 36.2766 7.90888C36.202 7.89571 36.1264 7.88907 36.0506 7.88904C35.4192 7.88904 34.8267 8.35809 34.8067 9.23725Z" fill="white"/>
<path d="M32.6887 2.86787C31.9841 3.02242 31.4743 3.74283 31.8171 4.66289C32.3783 6.16625 34.19 9.95472 34.19 9.95472C34.19 9.95472 34.308 5.74531 34.2088 4.13851C34.1563 3.28461 33.5768 2.84021 32.9649 2.84021C32.872 2.84007 32.7794 2.85015 32.6887 2.87028" fill="white"/>
<path d="M28.0333 0.199045C27.4751 0.571278 27.2662 1.36866 27.864 2.04998C28.8412 3.16367 31.6472 5.83304 31.6472 5.83304C31.6472 5.83304 30.3743 2.14199 29.7647 0.781748C29.5222 0.240538 29.0979 0 28.6795 0C28.4505 0.00129081 28.2268 0.0704496 28.0357 0.199045" fill="white"/>
<path d="M4.46592 26.0515C4.2995 26.8855 4.81231 27.7767 5.93353 27.8351H5.94356C6.84289 27.8812 7.74226 27.745 8.58962 27.4346C9.17872 27.2176 9.75282 26.9604 10.308 26.6648C8.97969 26.0467 7.39169 25.3274 6.50121 24.9943C6.29775 24.9164 6.08241 24.8757 5.86507 24.874C5.13038 24.874 4.59751 25.3954 4.46592 26.0521V26.0515ZM1.55902 20.2731C1.09755 20.9394 1.21085 21.9226 2.17274 22.4127C3.7448 23.2149 8.02902 24.9251 8.02902 24.9251C8.02902 24.9251 5.01177 21.3856 3.74303 20.1451C3.40135 19.8113 3.02722 19.667 2.67551 19.667C2.45534 19.6693 2.23895 19.7256 2.04462 19.8311C1.85029 19.9366 1.68373 20.0882 1.55902 20.2731ZM0.635494 13.6102C-0.0342839 14.0558 -0.285082 15.0126 0.431315 15.8298C1.6021 17.1666 4.96456 20.367 4.96456 20.367C4.96456 20.367 3.44207 15.9423 2.71446 14.312C2.4194 13.6626 1.91191 13.3721 1.40736 13.3721C1.13262 13.3743 0.864441 13.4579 0.635494 13.6126V13.6102ZM2.49258 7.91129C1.78444 8.03758 1.24508 8.73634 1.55253 9.66963C2.05471 11.1934 3.71765 15.0487 3.71765 15.0487C3.71765 15.0487 3.99737 10.8465 3.96137 9.23726C3.9419 8.35809 3.34883 7.88904 2.71741 7.88904C2.64166 7.88911 2.56605 7.89575 2.4914 7.90889L2.49258 7.91129ZM4.55679 4.13605C4.45883 5.74284 4.57568 9.95226 4.57568 9.95226C4.57568 9.95226 6.38791 6.16739 6.94852 4.66042C7.29138 3.74037 6.77975 3.01995 6.07751 2.86541C5.98654 2.8456 5.89378 2.83553 5.80075 2.83534C5.1888 2.83534 4.60931 3.27974 4.55679 4.13365V4.13605ZM9.00447 0.781748C8.39489 2.14199 7.1226 5.83305 7.1226 5.83305C7.1226 5.83305 9.928 3.16668 10.9052 2.05299C11.503 1.37167 11.2947 0.574284 10.7365 0.202052C10.5452 0.0720587 10.3208 0.00183256 10.0909 0C9.67071 0 9.24642 0.240538 9.00329 0.781748" fill="white"/>
<path d="M0.809074 31.4443C1.42655 31.6147 2.05258 31.751 2.68445 31.8526C3.28041 31.9435 3.88231 31.9877 4.48489 31.9849C6.10883 31.9809 7.72157 31.7107 9.26126 31.1846C10.4025 30.7982 11.4985 30.2848 12.5293 29.6535C12.9819 29.3968 14.1173 28.5922 15.4132 28.5916C15.6094 28.5921 15.805 28.6123 15.9974 28.6517C16.4919 28.7359 17.8321 29.2879 18.4387 30.9019H20.333C20.9402 29.2879 22.2803 28.7371 22.7742 28.6517C22.9666 28.6123 23.1623 28.5921 23.3585 28.5916C24.6567 28.5916 25.7897 29.3968 26.2423 29.6535C27.2733 30.2845 28.3692 30.798 29.5104 31.1846C31.0497 31.7105 32.662 31.9808 34.2856 31.9849C34.8876 31.9876 35.4889 31.9434 36.0842 31.8526C36.7161 31.751 37.3422 31.6147 37.9596 31.4443L38.1402 31.9771C37.4997 32.2234 36.8426 32.4219 36.1739 32.5713C35.0826 32.8195 33.9674 32.9423 32.8492 32.9375C31.6387 32.9411 30.4319 32.7999 29.2537 32.5165C28.012 32.2191 26.807 31.7808 25.6611 31.2098C25.5289 31.1461 24.8113 30.7853 24.2082 30.6181C23.9773 30.5544 23.7393 30.5212 23.5001 30.5195C23.3452 30.5185 23.1907 30.536 23.0398 30.5718C22.4332 30.7576 22.1363 31.2934 21.9888 31.721L22.2249 32.5713C22.3264 32.9357 22.1027 33.3127 21.7858 33.3127H16.9829C16.6654 33.3127 16.4417 32.9357 16.5432 32.5713L16.7793 31.7191C16.6294 31.2898 16.3279 30.757 15.7277 30.5718C15.5768 30.5361 15.4223 30.5185 15.2674 30.5195C15.0282 30.5212 14.7902 30.5544 14.5593 30.6181C13.958 30.7889 13.2404 31.1497 13.1082 31.2098C11.9632 31.7799 10.7591 32.2176 9.51855 32.5147C8.34033 32.798 7.13355 32.9393 5.92299 32.9357C4.80429 32.9412 3.68851 32.8189 2.59653 32.5713C1.92689 32.422 1.26876 32.2234 0.627319 31.9771L0.809074 31.4443Z" fill="white"/>
<path d="M22.822 25.2565C23.9939 25.2565 25.4521 25.6419 27.2224 26.749C30.15 28.5801 32.7837 28.8856 34.2141 28.8856C34.5922 28.8912 34.9701 28.8656 35.3442 28.8092L37.075 31.14C36.7486 31.214 36.3975 31.2855 36.0299 31.3433C35.4524 31.4307 34.8693 31.4731 34.2855 31.4702C32.6996 31.4644 31.1248 31.2005 29.6207 30.6884C28.5031 30.3102 27.43 29.807 26.4211 29.1881C26.365 29.1562 26.2983 29.1159 26.2222 29.0678C25.6504 28.7208 24.5858 28.0756 23.3566 28.0756C23.1408 28.0743 22.9254 28.0945 22.7134 28.1357C22.0837 28.2427 20.7725 28.8495 20.0697 30.3811H18.6989C17.9984 28.8531 16.6854 28.2464 16.0658 28.1429C15.8508 28.0999 15.6322 28.0784 15.4131 28.0786C14.1845 28.0786 13.1199 28.7238 12.5475 29.0708C12.4714 29.1171 12.4047 29.1574 12.3398 29.1947C11.3322 29.8123 10.2605 30.3143 9.14435 30.6914C7.64198 31.2067 6.06764 31.4707 4.48246 31.4732C3.89865 31.4757 3.3155 31.4329 2.73808 31.3451C2.37103 31.2849 2.01933 31.2158 1.69299 31.1418L3.42438 28.811C3.79824 28.8674 4.17596 28.893 4.55386 28.8874C5.98429 28.8874 8.61797 28.5819 11.5455 26.7508C13.3159 25.6437 14.7746 25.2583 15.9466 25.2583C17.7122 25.2583 18.8281 26.1326 19.3834 26.7268C19.9387 26.1326 21.0552 25.2583 22.8208 25.2583" fill="white"/>
<path d="M19.0464 12.321C19.7935 12.3314 20.5387 12.4007 21.2753 12.5284V9.61793L19.8714 9.05266C19.7738 9.01345 19.6901 8.94522 19.631 8.85685C19.572 8.76848 19.5404 8.66406 19.5404 8.55715V7.75737C19.5404 7.72448 19.5484 7.69211 19.5635 7.66306C19.5786 7.63401 19.6005 7.60916 19.6272 7.59067C19.6539 7.57218 19.6846 7.56061 19.7167 7.55697C19.7487 7.55332 19.7812 7.55771 19.8112 7.56975L32.3623 12.621C32.4406 12.6524 32.5278 12.6508 32.6049 12.6165C32.682 12.5823 32.7426 12.5183 32.7733 12.4385C32.8041 12.3588 32.8025 12.2699 32.7689 12.1913C32.7353 12.1128 32.6725 12.051 32.5942 12.0197L20.0248 6.96179C19.7109 6.83549 19.3616 6.83549 19.0476 6.96179L6.45639 12.0323C6.31431 12.0894 6.19239 12.1888 6.1065 12.3175C6.02062 12.4462 5.97474 12.5983 5.97485 12.7539V13.849C5.97491 14.0046 6.02084 14.1566 6.10671 14.2853C6.19257 14.4139 6.3144 14.5133 6.45639 14.5706L10.9094 16.3626V16.1112C10.9094 15.3103 11.2882 14.5772 11.8972 14.2122C13.9461 12.9861 16.4039 12.2879 19.0464 12.3216" fill="white"/>
<path d="M32.6769 14.2074L23.3585 10.4562V13.0564C24.3516 13.3915 25.3038 13.8417 26.1963 14.398L26.3114 14.4683L26.2689 14.5405C25.3442 14.0478 24.3678 13.6629 23.3585 13.3931V15.8358L22.3169 14.9663L21.2754 15.4684V12.9951C20.6979 12.9269 20.117 12.8926 19.5357 12.8922C16.9587 12.8922 14.5622 13.5465 12.5641 14.6692C11.9699 15.0029 11.6005 15.6644 11.6005 16.3824V21.361C11.6005 21.4403 11.6174 21.5188 11.6501 21.5908C11.6828 21.6629 11.7304 21.7268 11.7897 21.7783C11.8491 21.8297 11.9186 21.8675 11.9936 21.8889C12.0686 21.9103 12.1473 21.9148 12.2242 21.9022C14.3876 21.5414 16.8808 21.3363 19.5357 21.3363C22.1906 21.3363 24.6839 21.542 26.8472 21.9022C26.9241 21.9148 27.0028 21.9103 27.0778 21.8889C27.1528 21.8675 27.2224 21.8297 27.2817 21.7783C27.341 21.7268 27.3886 21.6629 27.4213 21.5908C27.454 21.5188 27.4709 21.4403 27.471 21.361V16.6404L32.6769 14.5447C32.7105 14.5317 32.7394 14.5086 32.7598 14.4785C32.7803 14.4484 32.7912 14.4127 32.7912 14.376C32.7912 14.3394 32.7803 14.3037 32.7598 14.2736C32.7394 14.2434 32.7105 14.2203 32.6769 14.2074Z" fill="white"/>
<path d="M1.83707 39.524C1.83526 39.0008 1.97097 38.4867 2.23008 38.035C2.35519 37.8159 2.50708 37.6139 2.68211 37.4337C2.85624 37.2547 3.05289 37.1 3.26691 36.9737C3.48375 36.847 3.71557 36.749 3.95675 36.682C4.46001 36.5409 4.99133 36.5409 5.49458 36.682C5.73685 36.7501 5.9695 36.8498 6.18679 36.9785C6.61708 37.2337 6.9748 37.5987 7.22479 38.0374C7.35052 38.259 7.44846 38.4958 7.51631 38.7422C7.65479 39.2553 7.65479 39.7969 7.51631 40.3099C7.44904 40.5556 7.35106 40.7915 7.22479 41.0117C7.10014 41.2288 6.94817 41.4283 6.77277 41.6052C6.59708 41.7829 6.40022 41.9375 6.18679 42.0653C5.96998 42.1949 5.73721 42.2946 5.49458 42.3617C5.12264 42.4663 4.73392 42.4939 4.35134 42.443C3.96875 42.3921 3.60004 42.2636 3.26691 42.0653C3.05354 41.9379 2.85702 41.7833 2.68211 41.6052C2.5076 41.4275 2.35573 41.2281 2.23008 41.0117C2.10307 40.7921 2.00524 40.5564 1.93915 40.3105C1.87024 40.0543 1.83589 39.7897 1.83707 39.524ZM3.29995 39.5204C3.2981 39.7242 3.33394 39.9266 3.40558 40.1169C3.47232 40.2953 3.57254 40.4587 3.70064 40.598C3.8279 40.7358 3.98128 40.8458 4.15149 40.9215C4.33349 40.9993 4.52889 41.0394 4.72626 41.0394C4.92363 41.0394 5.11902 40.9993 5.30103 40.9215C5.4722 40.8464 5.62645 40.7362 5.75423 40.598C5.88234 40.4587 5.98256 40.2953 6.04929 40.1169C6.19012 39.7326 6.19012 39.3094 6.04929 38.925C5.98287 38.7447 5.88266 38.5793 5.75423 38.4379C5.6226 38.2949 5.46356 38.1808 5.28695 38.1028C5.11034 38.0248 4.91991 37.9846 4.72744 37.9846C4.53496 37.9846 4.34454 38.0248 4.16793 38.1028C3.99132 38.1808 3.83228 38.2949 3.70064 38.4379C3.57222 38.5793 3.472 38.7447 3.40558 38.925C3.33427 39.115 3.29845 39.317 3.29995 39.5204Z" fill="white"/>
<path d="M9.10543 40.8566C9.17152 40.9245 9.24589 40.9836 9.32673 41.0322C9.39985 41.0766 9.4762 41.1151 9.5551 41.1476C9.61782 41.1727 9.68233 41.1928 9.74807 41.2078C9.78514 41.2179 9.82308 41.2244 9.86137 41.227C9.90917 41.227 9.97054 41.227 10.0449 41.2216C10.1171 41.2179 10.1887 41.2062 10.2585 41.1867C10.3238 41.1693 10.3843 41.137 10.4355 41.0923C10.4605 41.0691 10.4801 41.0404 10.4929 41.0085C10.5056 40.9766 10.5112 40.9421 10.5093 40.9077C10.5125 40.8476 10.4979 40.7879 10.4674 40.7363C10.4363 40.6908 10.3948 40.6536 10.3464 40.6281C10.2844 40.595 10.2191 40.5686 10.1517 40.5493C10.075 40.5265 9.98883 40.4994 9.89264 40.4687C9.63165 40.4032 9.38012 40.3033 9.14438 40.1717C8.96717 40.0725 8.80903 39.9415 8.6776 39.785C8.56781 39.6511 8.48643 39.4955 8.43861 39.328C8.3929 39.1587 8.37006 38.9839 8.37074 38.8084C8.36823 38.6072 8.41103 38.4081 8.49585 38.2263C8.57878 38.0512 8.69989 37.8978 8.84992 37.7777C9.0146 37.6473 9.20173 37.5494 9.40167 37.4891C9.77882 37.379 10.1757 37.3585 10.5618 37.4289C10.6986 37.4555 10.8319 37.4983 10.959 37.5564C11.0893 37.6169 11.2128 37.6917 11.3272 37.7795C11.4548 37.8779 11.5744 37.9867 11.6848 38.1048C11.7222 38.1442 11.7455 38.1953 11.7509 38.2498C11.7478 38.2786 11.7386 38.3065 11.7239 38.3314C11.7093 38.3563 11.6895 38.3777 11.6659 38.3941C11.5674 38.4759 11.4736 38.5571 11.3839 38.6346C11.2942 38.7122 11.2021 38.803 11.1065 38.9004C11.0806 38.9239 11.0494 38.9405 11.0156 38.9485C10.9872 38.9559 10.9574 38.9559 10.9289 38.9485C10.9004 38.9404 10.8734 38.9274 10.8492 38.91C10.8235 38.8917 10.8007 38.8696 10.7814 38.8445C10.7008 38.7498 10.596 38.6798 10.4786 38.6424C10.3759 38.6093 10.2689 38.5916 10.1611 38.5901C10.0588 38.5852 9.95708 38.6078 9.86609 38.6557C9.8314 38.6749 9.80314 38.7042 9.78495 38.7399C9.76675 38.7756 9.75946 38.816 9.764 38.8559C9.7648 38.8858 9.77178 38.9152 9.78449 38.9421C9.7972 38.9691 9.81536 38.993 9.83776 39.0123C9.88606 39.0521 9.94104 39.0827 10 39.1025C10.0666 39.1266 10.1348 39.1453 10.2042 39.1584C10.2762 39.1728 10.3423 39.1885 10.4025 39.2065C10.6147 39.2746 10.823 39.3549 11.0263 39.447C11.2054 39.5277 11.3713 39.6363 11.5178 39.7688C11.6563 39.8956 11.7664 40.0512 11.8406 40.2252C11.9239 40.4301 11.9641 40.6505 11.9586 40.8722C11.9613 41.1082 11.9091 41.3415 11.8064 41.553C11.7088 41.7505 11.5686 41.923 11.3963 42.0575C11.2109 42.1992 11.0014 42.3048 10.7784 42.369C10.5291 42.4426 10.2708 42.479 10.0113 42.4772C9.85161 42.4768 9.69229 42.4625 9.53504 42.4345C9.37442 42.4066 9.2173 42.3609 9.06649 42.298C8.9142 42.2352 8.76962 42.1545 8.6357 42.0575C8.49756 41.9566 8.3752 41.8349 8.27279 41.6967C8.24593 41.6626 8.2248 41.6242 8.21023 41.583C8.19637 41.5446 8.18995 41.5037 8.19135 41.4628C8.19222 41.4263 8.19983 41.3904 8.21377 41.3569C8.22863 41.324 8.25136 41.2955 8.27987 41.2739L8.76789 40.7772C8.78789 40.755 8.81314 40.7384 8.84124 40.7289C8.86933 40.7194 8.89934 40.7174 8.9284 40.7231C8.99571 40.7549 9.05595 40.8003 9.10543 40.8566Z" fill="white"/>
<path d="M13.0556 36.7235C13.0531 36.6893 13.0588 36.655 13.0723 36.6235C13.0858 36.5921 13.1066 36.5645 13.1329 36.5431C13.2009 36.4947 13.2754 36.4566 13.3542 36.4301L14.2122 36.1252C14.2241 36.1228 14.2362 36.1216 14.2482 36.1216H14.2807C14.3739 36.1216 14.4365 36.1492 14.4678 36.2046C14.5019 36.2717 14.5182 36.3467 14.515 36.4223L14.5114 37.4812H15.029C15.0648 37.4797 15.1007 37.4854 15.1344 37.498C15.1681 37.5106 15.1991 37.5298 15.2255 37.5546C15.2523 37.5838 15.2729 37.6184 15.2859 37.6562C15.299 37.694 15.3041 37.7341 15.301 37.7741V38.5173C15.3047 38.56 15.3 38.603 15.287 38.6437C15.274 38.6844 15.2531 38.722 15.2255 38.7543C15.1993 38.7795 15.1684 38.7992 15.1347 38.8121C15.1009 38.825 15.065 38.8309 15.029 38.8294H14.5108L14.5144 42.0803C14.5172 42.1211 14.5112 42.1621 14.4969 42.2004C14.4825 42.2386 14.4601 42.2731 14.4312 42.3016C14.3664 42.3552 14.2843 42.382 14.201 42.3768H13.3466C13.1526 42.3768 13.0556 42.2779 13.0556 42.0803L13.0515 38.8294H12.6626C12.4683 38.8294 12.3711 38.7254 12.3711 38.5173V37.7753C12.3711 37.58 12.4683 37.4824 12.6626 37.4824H13.0515L13.0556 36.7235Z" fill="white"/>
<path d="M19.8868 41.7935C19.6678 41.9999 19.4144 42.1649 19.1385 42.2805C18.8599 42.3971 18.5615 42.4564 18.2604 42.4549C17.5946 42.4581 16.9536 42.1979 16.4724 41.7291C16.2392 41.5002 16.0518 41.2274 15.9206 40.9257C15.7827 40.6095 15.713 40.2669 15.7164 39.9209C15.7155 39.4827 15.8226 39.0514 16.028 38.6665C16.1277 38.4816 16.2496 38.3101 16.3909 38.1559C16.5322 38.0017 16.6931 37.8676 16.8695 37.7572C17.0488 37.6457 17.2419 37.5589 17.4437 37.4992C17.6562 37.4369 17.8764 37.4057 18.0975 37.4066C18.3035 37.4069 18.5085 37.4362 18.7065 37.4938C18.9005 37.5499 19.0866 37.6307 19.2606 37.7344C19.4323 37.8375 19.5908 37.9617 19.7327 38.1042C19.8742 38.246 19.9986 38.4045 20.1033 38.5763C20.2066 38.7471 20.2871 38.9311 20.3429 39.1235C20.3999 39.3186 20.4285 39.5212 20.4279 39.7248C20.4279 39.8583 20.4279 39.9654 20.4226 40.052C20.4222 40.1237 20.4017 40.1938 20.3636 40.254C20.3192 40.3098 20.2561 40.3469 20.1865 40.358C20.0675 40.3806 19.9464 40.3902 19.8254 40.3869H17.1073C17.1262 40.5346 17.1786 40.6758 17.2602 40.7994C17.3314 40.9041 17.422 40.9935 17.5269 41.0628C17.6255 41.1275 17.734 41.175 17.8479 41.2035C17.9531 41.2308 18.061 41.2451 18.1695 41.2462C18.2635 41.2459 18.3571 41.2363 18.4492 41.2174C18.5435 41.1984 18.6364 41.1727 18.7272 41.1404C18.8119 41.11 18.894 41.0726 18.9727 41.0285C19.0372 40.9925 19.0968 40.9478 19.1497 40.8956C19.1824 40.8677 19.2173 40.8425 19.2542 40.8205C19.2835 40.8025 19.3175 40.7938 19.3518 40.7955C19.386 40.7972 19.419 40.8092 19.4465 40.8301C19.488 40.8594 19.5266 40.8928 19.5616 40.9299L19.9629 41.3924C19.9861 41.4188 20.0039 41.4497 20.0154 41.4832C20.023 41.5099 20.0268 41.5377 20.0266 41.5655C20.0279 41.6133 20.0133 41.6601 19.9853 41.6984C19.9572 41.7349 19.924 41.7669 19.8868 41.7935ZM18.0686 38.5847C17.9706 38.5849 17.8736 38.6053 17.7836 38.6448C17.6904 38.6857 17.6032 38.7395 17.5245 38.8048C17.4437 38.8717 17.3708 38.948 17.3074 39.0321C17.2459 39.1119 17.1933 39.1985 17.1504 39.2901H19.0842C19.0333 39.1937 18.9759 39.1011 18.9125 39.0128C18.8519 38.9283 18.7807 38.8523 18.7006 38.7867C18.619 38.7213 18.527 38.6704 18.4286 38.6364C18.3131 38.5988 18.1922 38.5812 18.071 38.5841L18.0686 38.5847Z" fill="white"/>
<path d="M24.6408 41.8969C24.5676 41.9704 24.4899 42.0391 24.4083 42.1026C24.3191 42.1721 24.2241 42.2334 24.1244 42.286C24.0196 42.3409 23.9094 42.3846 23.7957 42.4165C23.6745 42.4507 23.5492 42.4677 23.4234 42.467C23.0986 42.4702 22.7767 42.4032 22.4792 42.2704C22.197 42.1449 21.9428 41.9622 21.7321 41.7334C21.5203 41.5 21.3546 41.2272 21.2441 40.93C21.0096 40.2884 21.0096 39.5823 21.2441 38.9407C21.3547 38.6442 21.5201 38.372 21.7315 38.1391C21.9412 37.9107 22.1947 37.7285 22.4763 37.6039C22.7741 37.4722 23.0958 37.4058 23.4204 37.4091C23.548 37.4082 23.6753 37.4205 23.8005 37.4458C23.9088 37.4685 24.0142 37.504 24.1144 37.5516C24.2071 37.5969 24.2946 37.6526 24.3752 37.7176C24.4551 37.7825 24.5302 37.8533 24.6001 37.9293V36.3213C24.5978 36.2449 24.6242 36.1705 24.6738 36.1132C24.7023 36.0835 24.7368 36.0605 24.775 36.0459C24.8131 36.0312 24.8539 36.0253 24.8945 36.0284H25.7449C25.7807 36.029 25.8161 36.0363 25.8493 36.05C25.8857 36.0641 25.9194 36.0845 25.9491 36.1102C25.9795 36.1357 26.0046 36.1672 26.0228 36.2028C26.0421 36.2398 26.0519 36.2812 26.0512 36.3231V42.0815C26.0512 42.2796 25.9491 42.3784 25.7449 42.378H25.0073C24.967 42.3801 24.9268 42.3736 24.8892 42.3588C24.8618 42.3463 24.8379 42.3271 24.8196 42.3028C24.7984 42.2748 24.7813 42.2438 24.7688 42.2108C24.7535 42.1735 24.7346 42.1302 24.7098 42.0815L24.6408 41.8969ZM22.4296 39.9359C22.4283 40.0975 22.4545 40.258 22.5069 40.4104C22.5548 40.5521 22.63 40.6825 22.7282 40.7941C22.8251 40.9027 22.9428 40.9899 23.074 41.0502C23.2149 41.1143 23.3677 41.1465 23.5219 41.1446C23.6781 41.1457 23.8328 41.1155 23.9775 41.0556C24.1158 40.9993 24.2422 40.9164 24.3499 40.8115C24.4565 40.706 24.543 40.5812 24.6048 40.4435C24.6696 40.3006 24.7061 40.1461 24.7122 39.9889V39.9347C24.7128 39.7737 24.6821 39.614 24.6219 39.4651C24.5633 39.3192 24.4779 39.1859 24.3705 39.0724C24.2627 38.9588 24.1342 38.8677 23.9923 38.8042C23.8435 38.7378 23.6826 38.7043 23.5202 38.7062C23.3655 38.704 23.2124 38.7375 23.0723 38.8042C22.9398 38.8679 22.822 38.9593 22.7265 39.0724C22.6287 39.1877 22.5536 39.321 22.5052 39.4651C22.4536 39.6164 22.428 39.7757 22.4296 39.9359Z" fill="white"/>
<path d="M28.5113 38.0007C28.5671 37.9205 28.6338 37.8488 28.7095 37.7879C28.7989 37.7137 28.8966 37.6505 29.0005 37.5996C29.1171 37.542 29.2393 37.4968 29.3652 37.4649C29.5038 37.43 29.6461 37.4126 29.7889 37.4132C30.0477 37.407 30.304 37.4657 30.5354 37.584C30.7423 37.6938 30.921 37.8516 31.057 38.0446C31.1992 38.2508 31.3028 38.482 31.3627 38.7266C31.4312 38.9988 31.4649 39.279 31.463 39.56V42.0827C31.4694 42.1612 31.4485 42.2395 31.404 42.304C31.3785 42.3308 31.3473 42.3515 31.3129 42.3645C31.2785 42.3775 31.2417 42.3825 31.2051 42.3791H30.3318C30.2232 42.3791 30.1488 42.3605 30.1087 42.3232C30.068 42.2865 30.0497 42.2138 30.0497 42.1055V39.5588C30.0515 39.4529 30.0314 39.3478 29.9907 39.2503C29.9504 39.1574 29.8931 39.0731 29.8219 39.002C29.6753 38.8569 29.4787 38.7759 29.2743 38.7765C29.1826 38.7766 29.0919 38.7957 29.0076 38.8324C28.9199 38.8697 28.8398 38.9233 28.7715 38.9906C28.6992 39.0612 28.6393 39.144 28.5945 39.2353C28.5471 39.334 28.5196 39.4413 28.5136 39.551V42.0941C28.5134 42.139 28.505 42.1835 28.4888 42.2252C28.4749 42.2656 28.4492 42.3006 28.4151 42.3256C28.3864 42.3442 28.3552 42.3584 28.3224 42.3677C28.2896 42.3759 28.2559 42.3798 28.2221 42.3791H27.3659C27.3255 42.3856 27.2843 42.3826 27.2453 42.3703C27.2063 42.3579 27.1706 42.3366 27.141 42.3079C27.1113 42.2792 27.0886 42.244 27.0745 42.205C27.0604 42.1659 27.0553 42.1241 27.0596 42.0827V36.3254C27.0563 36.2479 27.082 36.172 27.1316 36.1131C27.1631 36.0834 27.2004 36.0609 27.2411 36.047C27.2818 36.0331 27.3249 36.0282 27.3676 36.0325H28.2215C28.2899 36.0353 28.3563 36.056 28.4145 36.0927C28.4486 36.1176 28.4744 36.1527 28.4883 36.1931C28.5039 36.2323 28.5123 36.2741 28.513 36.3164L28.5113 38.0007Z" fill="white"/>
<path d="M32.0791 37.8559C32.0595 37.8148 32.0493 37.7698 32.0493 37.7242C32.0493 37.6785 32.0595 37.6335 32.0791 37.5925C32.1185 37.5191 32.2048 37.4824 32.3382 37.4824H33.2717C33.3002 37.4814 33.3285 37.4862 33.355 37.4965C33.3816 37.5069 33.4058 37.5225 33.4264 37.5426C33.4678 37.584 33.4989 37.635 33.5172 37.6911L34.5871 40.7916L35.634 37.6911C35.6505 37.6256 35.6879 37.5674 35.7402 37.5257C35.794 37.4946 35.8554 37.4797 35.9172 37.483H36.8886C36.9454 37.4806 37.0021 37.4904 37.055 37.5119C37.0908 37.5273 37.1207 37.5544 37.1399 37.5889C37.1561 37.6224 37.1621 37.6601 37.1571 37.6971C37.152 37.7384 37.1417 37.7788 37.1264 37.8174L36.8118 38.6063L36.4578 39.4999C36.3354 39.8098 36.2113 40.1245 36.0854 40.4441C35.9595 40.7636 35.8366 41.0775 35.7166 41.3858C35.5986 41.6937 35.4833 41.9895 35.3708 42.2734C35.2583 42.5572 35.157 42.8178 35.0669 43.0551C34.9748 43.2924 34.8948 43.5011 34.8267 43.6811C34.7586 43.8611 34.7069 43.9998 34.6715 44.0972L34.6827 44.078C34.6682 44.1422 34.6354 44.2006 34.5883 44.2458C34.5425 44.287 34.4829 44.3085 34.4219 44.3059H33.5497C33.4364 44.3059 33.3585 44.2836 33.3172 44.2385C33.2721 44.183 33.2497 44.112 33.2546 44.0401C33.2534 44.0137 33.2581 43.9874 33.2682 43.9631C33.2733 43.9507 33.2803 43.9391 33.2889 43.9289L33.8825 42.3569L32.0791 37.8559Z" fill="white"/>
</g>
<defs>
<clipPath id="clip0_43_4251">
<rect width="38.7692" height="44.3077" fill="white"/>
</clipPath>
</defs>
</svg>
